<?xml version="1.0" standalone="no"?>
<!DOCTYPE svg PUBLIC "-//W3C//DTD SVG 20010904//EN"
 "http://www.w3.org/TR/2001/REC-SVG-20010904/DTD/svg10.dtd">
<svg version="1.0" xmlns="http://www.w3.org/2000/svg"
 width="151.000000pt" height="151.000000pt" viewBox="0 0 151.000000 151.000000"
 preserveAspectRatio="xMidYMid meet">
<metadata>
Created by potrace 1.14, written by Peter Selinger 2001-2017
</metadata>
<g transform="translate(0.000000,151.000000) scale(0.100000,-0.100000)"
fill="#000000" stroke="none">
<path d="M158 1372 c-17 -3 -31 -79 -16 -88 4 -3 4 -13 0 -24 -4 -10 -5 -69
-2 -130 3 -62 4 -113 2 -115 -7 -7 -7 -155 0 -155 4 0 5 -6 2 -13 -3 -9 6 -13
33 -12 l38 0 5 230 5 230 220 1 c270 2 248 0 237 20 -5 9 -7 25 -5 35 3 11 1
20 -3 20 -21 3 -502 4 -516 1z"/>
<path d="M847 1368 c-8 -5 -7 -8 3 -8 9 0 11 -3 5 -8 -9 -6 -10 -14 -6 -47 1
-6 80 -10 219 -9 142 0 222 -4 228 -10 13 -15 12 -426 -1 -418 -5 3 -2 -4 8
-15 17 -19 60 -23 76 -7 8 8 6 516 -3 521 -13 9 -516 9 -529 1z"/>
<path d="M593 987 c-6 -10 15 -27 35 -27 7 0 10 -4 7 -10 -3 -5 -2 -10 2 -10
11 0 11 -80 1 -96 -4 -6 -4 -14 0 -18 11 -12 9 -76 -2 -76 -7 0 -8 -3 -1 -8
13 -9 15 -52 3 -52 -5 0 -5 -7 0 -17 9 -20 8 -54 -2 -71 -3 -6 -1 -12 5 -14
18 -6 -19 -38 -44 -38 -21 -1 -21 -1 -3 -15 16 -12 91 -15 169 -6 4 1 2 7 -5
15 -7 8 -15 13 -16 11 -2 -2 -12 4 -22 13 -13 11 -16 20 -10 27 6 7 8 14 5 16
-6 7 -7 80 -1 104 2 11 5 22 5 25 1 3 20 4 43 2 24 -2 51 -3 60 -3 11 0 21
-11 24 -25 3 -13 13 -24 21 -24 8 0 11 5 8 10 -3 6 -1 10 5 10 8 0 8 6 0 20
-7 13 -7 20 -1 20 7 0 7 9 1 25 -7 17 -6 25 1 25 7 0 7 6 -2 16 -12 15 -15 14
-34 -9 -15 -19 -31 -26 -60 -27 -82 -4 -77 -10 -73 88 l3 87 82 1 c45 1 82 -1
81 -5 -1 -3 4 -19 10 -34 11 -26 13 -27 28 -13 9 9 12 21 7 28 -4 7 -8 19 -9
26 -7 41 -8 42 -164 40 -83 -1 -154 -6 -157 -11z"/>
<path d="M1318 673 c-14 -4 -16 -26 -15 -205 1 -110 -1 -202 -6 -205 -4 -2 -4
-10 0 -16 13 -21 11 -34 -6 -35 -9 -1 -108 -1 -221 -1 -113 -1 -210 -4 -215
-8 -14 -10 -13 -63 0 -64 6 -1 124 -2 264 -3 191 -1 254 1 258 11 10 25 8 511
-2 519 -11 10 -31 12 -57 7z"/>
<path d="M144 630 c0 -22 -3 -42 -9 -44 -5 -3 -5 -5 2 -5 8 -1 9 -10 3 -31 -5
-16 -6 -30 -2 -30 4 0 7 -87 7 -193 l0 -192 250 0 c138 -1 258 1 267 3 13 3
17 13 15 37 l-2 33 -224 1 c-123 0 -226 3 -229 6 -3 3 -5 106 -4 230 l0 225
-38 0 c-38 0 -38 0 -36 -40z"/>
</g>
</svg>
